<?xml version="1.0" encoding="utf-8"?>
<!-- Generator: Adobe Illustrator 27.5.0, SVG Export Plug-In . SVG Version: 6.00 Build 0)  -->
<svg version="1.1" xmlns="http://www.w3.org/2000/svg" xmlns:xlink="http://www.w3.org/1999/xlink" x="0px" y="0px"
	 viewBox="0 0 750 500" style="enable-background:new 0 0 750 500;" xml:space="preserve">
<g id="BACKGROUND">
	<radialGradient id="SVGID_1_" cx="375" cy="250.0376" r="560.2233" gradientUnits="userSpaceOnUse">
		<stop  offset="0" style="stop-color:#F4F4F4"/>
		<stop  offset="0.2658" style="stop-color:#EDEDED"/>
		<stop  offset="0.6576" style="stop-color:#D9D9DB"/>
		<stop  offset="1" style="stop-color:#C2C3C5"/>
	</radialGradient>
	<rect y="0" style="fill:url(#SVGID_1_);" width="750" height="500.075"/>
</g>
<g id="OBJECTS">
	<g>
		<defs>
			<rect id="SVGID_00000144298955186379899860000010497621066575254964_" y="0" width="750" height="500.075"/>
		</defs>
		<clipPath id="SVGID_00000018934040583810972870000011561314162365899710_">
			<use xlink:href="#SVGID_00000144298955186379899860000010497621066575254964_"  style="overflow:visible;"/>
		</clipPath>
		<g style="clip-path:url(#SVGID_00000018934040583810972870000011561314162365899710_);">
			
				<radialGradient id="SVGID_00000181804780396508903080000006620143724261973397_" cx="307.3674" cy="243.1775" r="331.0292" gradientTransform="matrix(0.9785 0.2063 -0.2063 0.9785 99.2108 -98.4878)" gradientUnits="userSpaceOnUse">
				<stop  offset="0" style="stop-color:#F5F5F5"/>
				<stop  offset="0.0114" style="stop-color:#F4F4F4"/>
				<stop  offset="0.2604" style="stop-color:#DCDDDE"/>
				<stop  offset="0.4144" style="stop-color:#D3D4D6"/>
				<stop  offset="0.9706" style="stop-color:#D3D4D6"/>
			</radialGradient>
			
				<path style="fill:none;stroke:url(#SVGID_00000181804780396508903080000006620143724261973397_);stroke-width:2;stroke-miterlimit:10;" d="
				M-80.217,385.434c47.759-30.689,450.096-330.507,450.096-330.507l410.298-34.292"/>
			
				<radialGradient id="SVGID_00000177447850249575691780000014053956369383399823_" cx="315.1666" cy="250.9774" r="331.0292" gradientTransform="matrix(0.9785 0.2063 -0.2063 0.9785 99.2108 -98.4878)" gradientUnits="userSpaceOnUse">
				<stop  offset="0" style="stop-color:#F5F5F5"/>
				<stop  offset="0.0114" style="stop-color:#F4F4F4"/>
				<stop  offset="0.2604" style="stop-color:#DCDDDE"/>
				<stop  offset="0.4144" style="stop-color:#D3D4D6"/>
				<stop  offset="0.9706" style="stop-color:#D3D4D6"/>
			</radialGradient>
			
				<path style="fill:none;stroke:url(#SVGID_00000177447850249575691780000014053956369383399823_);stroke-width:2;stroke-miterlimit:10;" d="
				M-74.195,394.675c47.759-30.689,450.096-330.507,450.096-330.507L786.2,29.876"/>
			
				<radialGradient id="SVGID_00000031174643538258516390000016272987589383435914_" cx="322.9658" cy="258.7773" r="331.0292" gradientTransform="matrix(0.9785 0.2063 -0.2063 0.9785 99.2108 -98.4878)" gradientUnits="userSpaceOnUse">
				<stop  offset="0" style="stop-color:#F5F5F5"/>
				<stop  offset="0.0114" style="stop-color:#F4F4F4"/>
				<stop  offset="0.2604" style="stop-color:#DCDDDE"/>
				<stop  offset="0.4144" style="stop-color:#D3D4D6"/>
				<stop  offset="0.9706" style="stop-color:#D3D4D6"/>
			</radialGradient>
			
				<path style="fill:none;stroke:url(#SVGID_00000031174643538258516390000016272987589383435914_);stroke-width:2;stroke-miterlimit:10;" d="
				M-68.172,403.916C-20.414,373.228,381.924,73.41,381.924,73.41l410.298-34.292"/>
			
				<radialGradient id="SVGID_00000183236803210360625300000000973258757403476153_" cx="330.765" cy="266.5771" r="331.0292" gradientTransform="matrix(0.9785 0.2063 -0.2063 0.9785 99.2108 -98.4878)" gradientUnits="userSpaceOnUse">
				<stop  offset="0" style="stop-color:#F5F5F5"/>
				<stop  offset="0.0114" style="stop-color:#F4F4F4"/>
				<stop  offset="0.2604" style="stop-color:#DCDDDE"/>
				<stop  offset="0.4144" style="stop-color:#D3D4D6"/>
				<stop  offset="0.9706" style="stop-color:#D3D4D6"/>
			</radialGradient>
			
				<path style="fill:none;stroke:url(#SVGID_00000183236803210360625300000000973258757403476153_);stroke-width:2;stroke-miterlimit:10;" d="
				M-62.15,413.158c47.758-30.689,450.096-330.507,450.096-330.507l410.298-34.292"/>
			
				<radialGradient id="SVGID_00000138547839450778866730000003500418426961907076_" cx="338.5643" cy="274.377" r="331.0292" gradientTransform="matrix(0.9785 0.2063 -0.2063 0.9785 99.2108 -98.4878)" gradientUnits="userSpaceOnUse">
				<stop  offset="0" style="stop-color:#F5F5F5"/>
				<stop  offset="0.0114" style="stop-color:#F4F4F4"/>
				<stop  offset="0.2604" style="stop-color:#DCDDDE"/>
				<stop  offset="0.4144" style="stop-color:#D3D4D6"/>
				<stop  offset="0.9706" style="stop-color:#D3D4D6"/>
			</radialGradient>
			
				<path style="fill:none;stroke:url(#SVGID_00000138547839450778866730000003500418426961907076_);stroke-width:2;stroke-miterlimit:10;" d="
				M-56.127,422.399C-8.369,391.71,393.969,91.892,393.969,91.892L804.267,57.6"/>
			
				<radialGradient id="SVGID_00000029755931921015146400000007911395859408447145_" cx="346.3635" cy="282.1768" r="331.0292" gradientTransform="matrix(0.9785 0.2063 -0.2063 0.9785 99.2108 -98.4878)" gradientUnits="userSpaceOnUse">
				<stop  offset="0" style="stop-color:#F5F5F5"/>
				<stop  offset="0.0114" style="stop-color:#F4F4F4"/>
				<stop  offset="0.2604" style="stop-color:#DCDDDE"/>
				<stop  offset="0.4144" style="stop-color:#D3D4D6"/>
				<stop  offset="0.9706" style="stop-color:#D3D4D6"/>
			</radialGradient>
			
				<path style="fill:none;stroke:url(#SVGID_00000029755931921015146400000007911395859408447145_);stroke-width:2;stroke-miterlimit:10;" d="
				M-50.105,431.64c47.759-30.689,450.096-330.507,450.096-330.507l410.298-34.292"/>
			
				<radialGradient id="SVGID_00000130608937542268343840000013303130974842701757_" cx="354.1627" cy="289.9767" r="331.0292" gradientTransform="matrix(0.9785 0.2063 -0.2063 0.9785 99.2108 -98.4878)" gradientUnits="userSpaceOnUse">
				<stop  offset="0" style="stop-color:#F5F5F5"/>
				<stop  offset="0.0114" style="stop-color:#F4F4F4"/>
				<stop  offset="0.2604" style="stop-color:#DCDDDE"/>
				<stop  offset="0.4144" style="stop-color:#D3D4D6"/>
				<stop  offset="0.9706" style="stop-color:#D3D4D6"/>
			</radialGradient>
			
				<path style="fill:none;stroke:url(#SVGID_00000130608937542268343840000013303130974842701757_);stroke-width:2;stroke-miterlimit:10;" d="
				M-44.082,440.881c47.759-30.689,450.096-330.507,450.096-330.507l410.298-34.292"/>
			
				<radialGradient id="SVGID_00000133498023090720453750000000238865786496910470_" cx="361.9619" cy="297.7765" r="331.0292" gradientTransform="matrix(0.9785 0.2063 -0.2063 0.9785 99.2108 -98.4878)" gradientUnits="userSpaceOnUse">
				<stop  offset="0" style="stop-color:#F5F5F5"/>
				<stop  offset="0.0114" style="stop-color:#F4F4F4"/>
				<stop  offset="0.2604" style="stop-color:#DCDDDE"/>
				<stop  offset="0.4144" style="stop-color:#D3D4D6"/>
				<stop  offset="0.9706" style="stop-color:#D3D4D6"/>
			</radialGradient>
			
				<path style="fill:none;stroke:url(#SVGID_00000133498023090720453750000000238865786496910470_);stroke-width:2;stroke-miterlimit:10;" d="
				M-38.06,450.122c47.758-30.689,450.096-330.507,450.096-330.507l410.298-34.292"/>
			
				<radialGradient id="SVGID_00000133523750835760226110000005740676434421872312_" cx="369.7611" cy="305.5764" r="331.0292" gradientTransform="matrix(0.9785 0.2063 -0.2063 0.9785 99.2108 -98.4878)" gradientUnits="userSpaceOnUse">
				<stop  offset="0" style="stop-color:#F5F5F5"/>
				<stop  offset="0.0114" style="stop-color:#F4F4F4"/>
				<stop  offset="0.2604" style="stop-color:#DCDDDE"/>
				<stop  offset="0.4144" style="stop-color:#D3D4D6"/>
				<stop  offset="0.9706" style="stop-color:#D3D4D6"/>
			</radialGradient>
			
				<path style="fill:none;stroke:url(#SVGID_00000133523750835760226110000005740676434421872312_);stroke-width:2;stroke-miterlimit:10;" d="
				M-32.037,459.363c47.758-30.689,450.096-330.507,450.096-330.507l410.298-34.292"/>
			
				<radialGradient id="SVGID_00000171704682595525080640000006180594922507107003_" cx="377.5604" cy="313.3762" r="331.0292" gradientTransform="matrix(0.9785 0.2063 -0.2063 0.9785 99.2108 -98.4878)" gradientUnits="userSpaceOnUse">
				<stop  offset="0" style="stop-color:#F5F5F5"/>
				<stop  offset="0.0114" style="stop-color:#F4F4F4"/>
				<stop  offset="0.2604" style="stop-color:#DCDDDE"/>
				<stop  offset="0.4144" style="stop-color:#D3D4D6"/>
				<stop  offset="0.9706" style="stop-color:#D3D4D6"/>
			</radialGradient>
			
				<path style="fill:none;stroke:url(#SVGID_00000171704682595525080640000006180594922507107003_);stroke-width:2;stroke-miterlimit:10;" d="
				M-26.015,468.604c47.758-30.689,450.096-330.507,450.096-330.507l410.298-34.292"/>
			
				<radialGradient id="SVGID_00000058577850654007417860000001152864249221782192_" cx="385.3596" cy="321.1761" r="331.0292" gradientTransform="matrix(0.9785 0.2063 -0.2063 0.9785 99.2108 -98.4878)" gradientUnits="userSpaceOnUse">
				<stop  offset="0" style="stop-color:#F5F5F5"/>
				<stop  offset="0.0114" style="stop-color:#F4F4F4"/>
				<stop  offset="0.2604" style="stop-color:#DCDDDE"/>
				<stop  offset="0.4144" style="stop-color:#D3D4D6"/>
				<stop  offset="0.9706" style="stop-color:#D3D4D6"/>
			</radialGradient>
			
				<path style="fill:none;stroke:url(#SVGID_00000058577850654007417860000001152864249221782192_);stroke-width:2;stroke-miterlimit:10;" d="
				M-19.993,477.845c47.758-30.689,450.096-330.507,450.096-330.507l410.298-34.292"/>
			
				<radialGradient id="SVGID_00000078760188132588855790000014388148891574337408_" cx="393.1587" cy="328.976" r="331.0292" gradientTransform="matrix(0.9785 0.2063 -0.2063 0.9785 99.2108 -98.4878)" gradientUnits="userSpaceOnUse">
				<stop  offset="0" style="stop-color:#F5F5F5"/>
				<stop  offset="0.0114" style="stop-color:#F4F4F4"/>
				<stop  offset="0.2604" style="stop-color:#DCDDDE"/>
				<stop  offset="0.4144" style="stop-color:#D3D4D6"/>
				<stop  offset="0.9706" style="stop-color:#D3D4D6"/>
			</radialGradient>
			
				<path style="fill:none;stroke:url(#SVGID_00000078760188132588855790000014388148891574337408_);stroke-width:2;stroke-miterlimit:10;" d="
				M-13.97,487.087C33.788,456.398,436.126,156.58,436.126,156.58l410.298-34.292"/>
			
				<radialGradient id="SVGID_00000101060950708743655480000009337127912617250191_" cx="400.958" cy="336.7758" r="331.0292" gradientTransform="matrix(0.9785 0.2063 -0.2063 0.9785 99.2108 -98.4878)" gradientUnits="userSpaceOnUse">
				<stop  offset="0" style="stop-color:#F5F5F5"/>
				<stop  offset="0.0114" style="stop-color:#F4F4F4"/>
				<stop  offset="0.2604" style="stop-color:#DCDDDE"/>
				<stop  offset="0.4144" style="stop-color:#D3D4D6"/>
				<stop  offset="0.9706" style="stop-color:#D3D4D6"/>
			</radialGradient>
			
				<path style="fill:none;stroke:url(#SVGID_00000101060950708743655480000009337127912617250191_);stroke-width:2;stroke-miterlimit:10;" d="
				M-7.948,496.328c47.758-30.689,450.096-330.507,450.096-330.507l410.298-34.292"/>
			
				<radialGradient id="SVGID_00000167368315755243050110000013365227903583518104_" cx="408.7572" cy="344.5757" r="331.0292" gradientTransform="matrix(0.9785 0.2063 -0.2063 0.9785 99.2108 -98.4878)" gradientUnits="userSpaceOnUse">
				<stop  offset="0" style="stop-color:#F5F5F5"/>
				<stop  offset="0.0114" style="stop-color:#F4F4F4"/>
				<stop  offset="0.2604" style="stop-color:#DCDDDE"/>
				<stop  offset="0.4144" style="stop-color:#D3D4D6"/>
				<stop  offset="0.9706" style="stop-color:#D3D4D6"/>
			</radialGradient>
			
				<path style="fill:none;stroke:url(#SVGID_00000167368315755243050110000013365227903583518104_);stroke-width:2;stroke-miterlimit:10;" d="
				M-1.925,505.569c47.759-30.689,450.096-330.507,450.096-330.507l410.298-34.292"/>
			
				<radialGradient id="SVGID_00000123438915104702388690000008823053409432467338_" cx="416.5564" cy="352.3755" r="331.0292" gradientTransform="matrix(0.9785 0.2063 -0.2063 0.9785 99.2108 -98.4878)" gradientUnits="userSpaceOnUse">
				<stop  offset="0" style="stop-color:#F5F5F5"/>
				<stop  offset="0.0114" style="stop-color:#F4F4F4"/>
				<stop  offset="0.2604" style="stop-color:#DCDDDE"/>
				<stop  offset="0.4144" style="stop-color:#D3D4D6"/>
				<stop  offset="0.9706" style="stop-color:#D3D4D6"/>
			</radialGradient>
			
				<path style="fill:none;stroke:url(#SVGID_00000123438915104702388690000008823053409432467338_);stroke-width:2;stroke-miterlimit:10;" d="
				M4.097,514.81c47.758-30.689,450.096-330.507,450.096-330.507l410.298-34.292"/>
			
				<radialGradient id="SVGID_00000134969635423673376180000018015633257798481056_" cx="424.3556" cy="360.1754" r="331.0292" gradientTransform="matrix(0.9785 0.2063 -0.2063 0.9785 99.2108 -98.4878)" gradientUnits="userSpaceOnUse">
				<stop  offset="0" style="stop-color:#F5F5F5"/>
				<stop  offset="0.0114" style="stop-color:#F4F4F4"/>
				<stop  offset="0.2604" style="stop-color:#DCDDDE"/>
				<stop  offset="0.4144" style="stop-color:#D3D4D6"/>
				<stop  offset="0.9706" style="stop-color:#D3D4D6"/>
			</radialGradient>
			
				<path style="fill:none;stroke:url(#SVGID_00000134969635423673376180000018015633257798481056_);stroke-width:2;stroke-miterlimit:10;" d="
				M10.119,524.051c47.758-30.689,450.096-330.507,450.096-330.507l410.298-34.292"/>
			
				<radialGradient id="SVGID_00000146481788510283961540000009654649917032558486_" cx="432.1548" cy="367.9753" r="331.0292" gradientTransform="matrix(0.9785 0.2063 -0.2063 0.9785 99.2108 -98.4878)" gradientUnits="userSpaceOnUse">
				<stop  offset="0" style="stop-color:#F5F5F5"/>
				<stop  offset="0.0114" style="stop-color:#F4F4F4"/>
				<stop  offset="0.2604" style="stop-color:#DCDDDE"/>
				<stop  offset="0.4144" style="stop-color:#D3D4D6"/>
				<stop  offset="0.9706" style="stop-color:#D3D4D6"/>
			</radialGradient>
			
				<path style="fill:none;stroke:url(#SVGID_00000146481788510283961540000009654649917032558486_);stroke-width:2;stroke-miterlimit:10;" d="
				M16.142,533.292C63.9,502.603,466.238,202.786,466.238,202.786l410.298-34.292"/>
			
				<radialGradient id="SVGID_00000096054130405385304510000003920653058527399309_" cx="439.954" cy="375.7751" r="331.0292" gradientTransform="matrix(0.9785 0.2063 -0.2063 0.9785 99.2108 -98.4878)" gradientUnits="userSpaceOnUse">
				<stop  offset="0" style="stop-color:#F5F5F5"/>
				<stop  offset="0.0114" style="stop-color:#F4F4F4"/>
				<stop  offset="0.2604" style="stop-color:#DCDDDE"/>
				<stop  offset="0.4144" style="stop-color:#D3D4D6"/>
				<stop  offset="0.9706" style="stop-color:#D3D4D6"/>
			</radialGradient>
			
				<path style="fill:none;stroke:url(#SVGID_00000096054130405385304510000003920653058527399309_);stroke-width:2;stroke-miterlimit:10;" d="
				M22.164,542.533C69.923,511.845,472.26,212.027,472.26,212.027l410.298-34.292"/>
			
				<radialGradient id="SVGID_00000018218765244094014800000016883478665240976317_" cx="447.7532" cy="383.575" r="331.0292" gradientTransform="matrix(0.9785 0.2063 -0.2063 0.9785 99.2108 -98.4878)" gradientUnits="userSpaceOnUse">
				<stop  offset="0" style="stop-color:#F5F5F5"/>
				<stop  offset="0.0114" style="stop-color:#F4F4F4"/>
				<stop  offset="0.2604" style="stop-color:#DCDDDE"/>
				<stop  offset="0.4144" style="stop-color:#D3D4D6"/>
				<stop  offset="0.9706" style="stop-color:#D3D4D6"/>
			</radialGradient>
			
				<path style="fill:none;stroke:url(#SVGID_00000018218765244094014800000016883478665240976317_);stroke-width:2;stroke-miterlimit:10;" d="
				M28.187,551.775c47.758-30.689,450.096-330.507,450.096-330.507l410.298-34.292"/>
			
				<radialGradient id="SVGID_00000142854368962133952170000009639226966871744648_" cx="455.5525" cy="391.3748" r="331.0292" gradientTransform="matrix(0.9785 0.2063 -0.2063 0.9785 99.2108 -98.4878)" gradientUnits="userSpaceOnUse">
				<stop  offset="0" style="stop-color:#F5F5F5"/>
				<stop  offset="0.0114" style="stop-color:#F4F4F4"/>
				<stop  offset="0.2604" style="stop-color:#DCDDDE"/>
				<stop  offset="0.4144" style="stop-color:#D3D4D6"/>
				<stop  offset="0.9706" style="stop-color:#D3D4D6"/>
			</radialGradient>
			
				<path style="fill:none;stroke:url(#SVGID_00000142854368962133952170000009639226966871744648_);stroke-width:2;stroke-miterlimit:10;" d="
				M34.209,561.016c47.758-30.689,450.096-330.507,450.096-330.507l410.298-34.292"/>
			
				<radialGradient id="SVGID_00000129922417735201485160000010925774717737533083_" cx="463.3517" cy="399.1746" r="331.0292" gradientTransform="matrix(0.9785 0.2063 -0.2063 0.9785 99.2108 -98.4878)" gradientUnits="userSpaceOnUse">
				<stop  offset="0" style="stop-color:#F5F5F5"/>
				<stop  offset="0.0114" style="stop-color:#F4F4F4"/>
				<stop  offset="0.2604" style="stop-color:#DCDDDE"/>
				<stop  offset="0.4144" style="stop-color:#D3D4D6"/>
				<stop  offset="0.9706" style="stop-color:#D3D4D6"/>
			</radialGradient>
			
				<path style="fill:none;stroke:url(#SVGID_00000129922417735201485160000010925774717737533083_);stroke-width:2;stroke-miterlimit:10;" d="
				M40.231,570.257C87.99,539.568,490.328,239.75,490.328,239.75l410.298-34.292"/>
			
				<radialGradient id="SVGID_00000057121518222613760200000004791275241555218622_" cx="471.1509" cy="406.9745" r="331.0292" gradientTransform="matrix(0.9785 0.2063 -0.2063 0.9785 99.2108 -98.4878)" gradientUnits="userSpaceOnUse">
				<stop  offset="0" style="stop-color:#F5F5F5"/>
				<stop  offset="0.0114" style="stop-color:#F4F4F4"/>
				<stop  offset="0.2604" style="stop-color:#DCDDDE"/>
				<stop  offset="0.4144" style="stop-color:#D3D4D6"/>
				<stop  offset="0.9706" style="stop-color:#D3D4D6"/>
			</radialGradient>
			
				<path style="fill:none;stroke:url(#SVGID_00000057121518222613760200000004791275241555218622_);stroke-width:2;stroke-miterlimit:10;" d="
				M46.254,579.498C94.012,548.809,496.35,248.991,496.35,248.991l410.298-34.292"/>
			
				<radialGradient id="SVGID_00000143586142843895963750000013288709194153953724_" cx="478.9501" cy="414.7744" r="331.0292" gradientTransform="matrix(0.9785 0.2063 -0.2063 0.9785 99.2108 -98.4878)" gradientUnits="userSpaceOnUse">
				<stop  offset="0" style="stop-color:#F5F5F5"/>
				<stop  offset="0.0114" style="stop-color:#F4F4F4"/>
				<stop  offset="0.2604" style="stop-color:#DCDDDE"/>
				<stop  offset="0.4144" style="stop-color:#D3D4D6"/>
				<stop  offset="0.9706" style="stop-color:#D3D4D6"/>
			</radialGradient>
			
				<path style="fill:none;stroke:url(#SVGID_00000143586142843895963750000013288709194153953724_);stroke-width:2;stroke-miterlimit:10;" d="
				M52.276,588.739c47.758-30.689,450.096-330.507,450.096-330.507L912.67,223.94"/>
			
				<radialGradient id="SVGID_00000076570475816485025080000011395807809510486929_" cx="486.7494" cy="422.5742" r="331.0292" gradientTransform="matrix(0.9785 0.2063 -0.2063 0.9785 99.2108 -98.4878)" gradientUnits="userSpaceOnUse">
				<stop  offset="0" style="stop-color:#F5F5F5"/>
				<stop  offset="0.0114" style="stop-color:#F4F4F4"/>
				<stop  offset="0.2604" style="stop-color:#DCDDDE"/>
				<stop  offset="0.4144" style="stop-color:#D3D4D6"/>
				<stop  offset="0.9706" style="stop-color:#D3D4D6"/>
			</radialGradient>
			
				<path style="fill:none;stroke:url(#SVGID_00000076570475816485025080000011395807809510486929_);stroke-width:2;stroke-miterlimit:10;" d="
				M58.299,597.98c47.758-30.689,450.096-330.507,450.096-330.507l410.298-34.292"/>
			
				<radialGradient id="SVGID_00000098927654459855249720000007704247806276075429_" cx="494.5486" cy="430.3741" r="331.0292" gradientTransform="matrix(0.9785 0.2063 -0.2063 0.9785 99.2108 -98.4878)" gradientUnits="userSpaceOnUse">
				<stop  offset="0" style="stop-color:#F5F5F5"/>
				<stop  offset="0.0114" style="stop-color:#F4F4F4"/>
				<stop  offset="0.2604" style="stop-color:#DCDDDE"/>
				<stop  offset="0.4144" style="stop-color:#D3D4D6"/>
				<stop  offset="0.9706" style="stop-color:#D3D4D6"/>
			</radialGradient>
			
				<path style="fill:none;stroke:url(#SVGID_00000098927654459855249720000007704247806276075429_);stroke-width:2;stroke-miterlimit:10;" d="
				M64.321,607.221c47.758-30.689,450.096-330.507,450.096-330.507l410.298-34.292"/>
			
				<radialGradient id="SVGID_00000023965370193107404520000005585470211994038942_" cx="502.3478" cy="438.1739" r="331.0292" gradientTransform="matrix(0.9785 0.2063 -0.2063 0.9785 99.2108 -98.4878)" gradientUnits="userSpaceOnUse">
				<stop  offset="0" style="stop-color:#F5F5F5"/>
				<stop  offset="0.0114" style="stop-color:#F4F4F4"/>
				<stop  offset="0.2604" style="stop-color:#DCDDDE"/>
				<stop  offset="0.4144" style="stop-color:#D3D4D6"/>
				<stop  offset="0.9706" style="stop-color:#D3D4D6"/>
			</radialGradient>
			
				<path style="fill:none;stroke:url(#SVGID_00000023965370193107404520000005585470211994038942_);stroke-width:2;stroke-miterlimit:10;" d="
				M70.344,616.463c47.758-30.689,450.096-330.507,450.096-330.507l410.298-34.292"/>
			
				<radialGradient id="SVGID_00000169543192249319150590000017702212707220609424_" cx="510.147" cy="445.9738" r="331.0292" gradientTransform="matrix(0.9785 0.2063 -0.2063 0.9785 99.2108 -98.4878)" gradientUnits="userSpaceOnUse">
				<stop  offset="0" style="stop-color:#F5F5F5"/>
				<stop  offset="0.0114" style="stop-color:#F4F4F4"/>
				<stop  offset="0.2604" style="stop-color:#DCDDDE"/>
				<stop  offset="0.4144" style="stop-color:#D3D4D6"/>
				<stop  offset="0.9706" style="stop-color:#D3D4D6"/>
			</radialGradient>
			
				<path style="fill:none;stroke:url(#SVGID_00000169543192249319150590000017702212707220609424_);stroke-width:2;stroke-miterlimit:10;" d="
				M76.366,625.704c47.758-30.689,450.096-330.507,450.096-330.507l410.298-34.292"/>
			
				<radialGradient id="SVGID_00000026851262720006516110000005880571459344296888_" cx="517.9462" cy="453.7736" r="331.0292" gradientTransform="matrix(0.9785 0.2063 -0.2063 0.9785 99.2108 -98.4878)" gradientUnits="userSpaceOnUse">
				<stop  offset="0" style="stop-color:#F5F5F5"/>
				<stop  offset="0.0114" style="stop-color:#F4F4F4"/>
				<stop  offset="0.2604" style="stop-color:#DCDDDE"/>
				<stop  offset="0.4144" style="stop-color:#D3D4D6"/>
				<stop  offset="0.9706" style="stop-color:#D3D4D6"/>
			</radialGradient>
			
				<path style="fill:none;stroke:url(#SVGID_00000026851262720006516110000005880571459344296888_);stroke-width:2;stroke-miterlimit:10;" d="
				M82.388,634.945c47.758-30.689,450.096-330.507,450.096-330.507l410.298-34.292"/>
			
				<radialGradient id="SVGID_00000051368274963592828520000014737370168637165974_" cx="525.7454" cy="461.5735" r="331.0292" gradientTransform="matrix(0.9785 0.2063 -0.2063 0.9785 99.2108 -98.4878)" gradientUnits="userSpaceOnUse">
				<stop  offset="0" style="stop-color:#F5F5F5"/>
				<stop  offset="0.0114" style="stop-color:#F4F4F4"/>
				<stop  offset="0.2604" style="stop-color:#DCDDDE"/>
				<stop  offset="0.4144" style="stop-color:#D3D4D6"/>
				<stop  offset="0.9706" style="stop-color:#D3D4D6"/>
			</radialGradient>
			
				<path style="fill:none;stroke:url(#SVGID_00000051368274963592828520000014737370168637165974_);stroke-width:2;stroke-miterlimit:10;" d="
				M88.411,644.186c47.759-30.689,450.096-330.507,450.096-330.507l410.298-34.292"/>
			
				<radialGradient id="SVGID_00000030479694858822785160000011519861656267129267_" cx="533.5447" cy="469.3733" r="331.0292" gradientTransform="matrix(0.9785 0.2063 -0.2063 0.9785 99.2108 -98.4878)" gradientUnits="userSpaceOnUse">
				<stop  offset="0" style="stop-color:#F5F5F5"/>
				<stop  offset="0.0114" style="stop-color:#F4F4F4"/>
				<stop  offset="0.2604" style="stop-color:#DCDDDE"/>
				<stop  offset="0.4144" style="stop-color:#D3D4D6"/>
				<stop  offset="0.9706" style="stop-color:#D3D4D6"/>
			</radialGradient>
			
				<path style="fill:none;stroke:url(#SVGID_00000030479694858822785160000011519861656267129267_);stroke-width:2;stroke-miterlimit:10;" d="
				M94.433,653.427c47.758-30.689,450.096-330.507,450.096-330.507l410.298-34.292"/>
			
				<radialGradient id="SVGID_00000067238104767491223610000009222831975541587330_" cx="541.3439" cy="477.1732" r="331.0292" gradientTransform="matrix(0.9785 0.2063 -0.2063 0.9785 99.2108 -98.4878)" gradientUnits="userSpaceOnUse">
				<stop  offset="0" style="stop-color:#F5F5F5"/>
				<stop  offset="0.0114" style="stop-color:#F4F4F4"/>
				<stop  offset="0.2604" style="stop-color:#DCDDDE"/>
				<stop  offset="0.4144" style="stop-color:#D3D4D6"/>
				<stop  offset="0.9706" style="stop-color:#D3D4D6"/>
			</radialGradient>
			
				<path style="fill:none;stroke:url(#SVGID_00000067238104767491223610000009222831975541587330_);stroke-width:2;stroke-miterlimit:10;" d="
				M100.456,662.668c47.758-30.689,450.096-330.507,450.096-330.507l410.298-34.292"/>
			
				<radialGradient id="SVGID_00000017495336125232881760000011190328576661579193_" cx="549.1431" cy="484.9731" r="331.0292" gradientTransform="matrix(0.9785 0.2063 -0.2063 0.9785 99.2108 -98.4878)" gradientUnits="userSpaceOnUse">
				<stop  offset="0" style="stop-color:#F5F5F5"/>
				<stop  offset="0.0114" style="stop-color:#F4F4F4"/>
				<stop  offset="0.2604" style="stop-color:#DCDDDE"/>
				<stop  offset="0.4144" style="stop-color:#D3D4D6"/>
				<stop  offset="0.9706" style="stop-color:#D3D4D6"/>
			</radialGradient>
			
				<path style="fill:none;stroke:url(#SVGID_00000017495336125232881760000011190328576661579193_);stroke-width:2;stroke-miterlimit:10;" d="
				M106.478,671.909c47.758-30.689,450.096-330.507,450.096-330.507l410.298-34.292"/>
			
				<radialGradient id="SVGID_00000158003313847988072860000012243580854640964777_" cx="556.9423" cy="492.7729" r="331.0292" gradientTransform="matrix(0.9785 0.2063 -0.2063 0.9785 99.2108 -98.4878)" gradientUnits="userSpaceOnUse">
				<stop  offset="0" style="stop-color:#F5F5F5"/>
				<stop  offset="0.0114" style="stop-color:#F4F4F4"/>
				<stop  offset="0.2604" style="stop-color:#DCDDDE"/>
				<stop  offset="0.4144" style="stop-color:#D3D4D6"/>
				<stop  offset="0.9706" style="stop-color:#D3D4D6"/>
			</radialGradient>
			
				<path style="fill:none;stroke:url(#SVGID_00000158003313847988072860000012243580854640964777_);stroke-width:2;stroke-miterlimit:10;" d="
				M112.501,681.151c47.758-30.689,450.096-330.507,450.096-330.507l410.298-34.292"/>
			
				<radialGradient id="SVGID_00000006706060267747756680000016806046973956165539_" cx="564.7415" cy="500.5728" r="331.0292" gradientTransform="matrix(0.9785 0.2063 -0.2063 0.9785 99.2108 -98.4878)" gradientUnits="userSpaceOnUse">
				<stop  offset="0" style="stop-color:#F5F5F5"/>
				<stop  offset="0.0114" style="stop-color:#F4F4F4"/>
				<stop  offset="0.2604" style="stop-color:#DCDDDE"/>
				<stop  offset="0.4144" style="stop-color:#D3D4D6"/>
				<stop  offset="0.9706" style="stop-color:#D3D4D6"/>
			</radialGradient>
			
				<path style="fill:none;stroke:url(#SVGID_00000006706060267747756680000016806046973956165539_);stroke-width:2;stroke-miterlimit:10;" d="
				M118.523,690.392c47.758-30.689,450.096-330.507,450.096-330.507l410.298-34.292"/>
			
				<radialGradient id="SVGID_00000158031043558940612530000011520937591358509754_" cx="572.5407" cy="508.3726" r="331.0292" gradientTransform="matrix(0.9785 0.2063 -0.2063 0.9785 99.2108 -98.4878)" gradientUnits="userSpaceOnUse">
				<stop  offset="0" style="stop-color:#F5F5F5"/>
				<stop  offset="0.0114" style="stop-color:#F4F4F4"/>
				<stop  offset="0.2604" style="stop-color:#DCDDDE"/>
				<stop  offset="0.4144" style="stop-color:#D3D4D6"/>
				<stop  offset="0.9706" style="stop-color:#D3D4D6"/>
			</radialGradient>
			
				<path style="fill:none;stroke:url(#SVGID_00000158031043558940612530000011520937591358509754_);stroke-width:2;stroke-miterlimit:10;" d="
				M124.545,699.633c47.758-30.689,450.096-330.507,450.096-330.507l410.298-34.292"/>
			
				<radialGradient id="SVGID_00000001663490922396531410000001713546498855754405_" cx="580.3399" cy="516.1725" r="331.0292" gradientTransform="matrix(0.9785 0.2063 -0.2063 0.9785 99.2108 -98.4878)" gradientUnits="userSpaceOnUse">
				<stop  offset="0" style="stop-color:#F5F5F5"/>
				<stop  offset="0.0114" style="stop-color:#F4F4F4"/>
				<stop  offset="0.2604" style="stop-color:#DCDDDE"/>
				<stop  offset="0.4144" style="stop-color:#D3D4D6"/>
				<stop  offset="0.9706" style="stop-color:#D3D4D6"/>
			</radialGradient>
			
				<path style="fill:none;stroke:url(#SVGID_00000001663490922396531410000001713546498855754405_);stroke-width:2;stroke-miterlimit:10;" d="
				M130.568,708.874c47.758-30.689,450.096-330.507,450.096-330.507l410.298-34.292"/>
			
				<radialGradient id="SVGID_00000034053562646766462020000014090566310842460592_" cx="588.1391" cy="523.9724" r="331.0292" gradientTransform="matrix(0.9785 0.2063 -0.2063 0.9785 99.2108 -98.4878)" gradientUnits="userSpaceOnUse">
				<stop  offset="0" style="stop-color:#F5F5F5"/>
				<stop  offset="0.0114" style="stop-color:#F4F4F4"/>
				<stop  offset="0.2604" style="stop-color:#DCDDDE"/>
				<stop  offset="0.4144" style="stop-color:#D3D4D6"/>
				<stop  offset="0.9706" style="stop-color:#D3D4D6"/>
			</radialGradient>
			
				<path style="fill:none;stroke:url(#SVGID_00000034053562646766462020000014090566310842460592_);stroke-width:2;stroke-miterlimit:10;" d="
				M136.59,718.115c47.758-30.689,450.096-330.507,450.096-330.507l410.298-34.292"/>
			
				<radialGradient id="SVGID_00000043458395690835979210000010885355358491944107_" cx="595.9383" cy="531.7722" r="331.0292" gradientTransform="matrix(0.9785 0.2063 -0.2063 0.9785 99.2108 -98.4878)" gradientUnits="userSpaceOnUse">
				<stop  offset="0" style="stop-color:#F5F5F5"/>
				<stop  offset="0.0114" style="stop-color:#F4F4F4"/>
				<stop  offset="0.2604" style="stop-color:#DCDDDE"/>
				<stop  offset="0.4144" style="stop-color:#D3D4D6"/>
				<stop  offset="0.9706" style="stop-color:#D3D4D6"/>
			</radialGradient>
			
				<path style="fill:none;stroke:url(#SVGID_00000043458395690835979210000010885355358491944107_);stroke-width:2;stroke-miterlimit:10;" d="
				M142.613,727.356c47.758-30.689,450.096-330.507,450.096-330.507l410.298-34.292"/>
			
				<radialGradient id="SVGID_00000150813545298613713080000001107080723668928670_" cx="603.7376" cy="539.572" r="331.0292" gradientTransform="matrix(0.9785 0.2063 -0.2063 0.9785 99.2108 -98.4878)" gradientUnits="userSpaceOnUse">
				<stop  offset="0" style="stop-color:#F5F5F5"/>
				<stop  offset="0.0114" style="stop-color:#F4F4F4"/>
				<stop  offset="0.2604" style="stop-color:#DCDDDE"/>
				<stop  offset="0.4144" style="stop-color:#D3D4D6"/>
				<stop  offset="0.9706" style="stop-color:#D3D4D6"/>
			</radialGradient>
			
				<path style="fill:none;stroke:url(#SVGID_00000150813545298613713080000001107080723668928670_);stroke-width:2;stroke-miterlimit:10;" d="
				M148.635,736.597c47.758-30.689,450.096-330.507,450.096-330.507l410.298-34.292"/>
			
				<radialGradient id="SVGID_00000129201065576844357620000012419759736922465455_" cx="611.5368" cy="547.3719" r="331.0292" gradientTransform="matrix(0.9785 0.2063 -0.2063 0.9785 99.2108 -98.4878)" gradientUnits="userSpaceOnUse">
				<stop  offset="0" style="stop-color:#F5F5F5"/>
				<stop  offset="0.0114" style="stop-color:#F4F4F4"/>
				<stop  offset="0.2604" style="stop-color:#DCDDDE"/>
				<stop  offset="0.4144" style="stop-color:#D3D4D6"/>
				<stop  offset="0.9706" style="stop-color:#D3D4D6"/>
			</radialGradient>
			
				<path style="fill:none;stroke:url(#SVGID_00000129201065576844357620000012419759736922465455_);stroke-width:2;stroke-miterlimit:10;" d="
				M154.658,745.839c47.758-30.689,450.096-330.507,450.096-330.507l410.298-34.292"/>
			
				<radialGradient id="SVGID_00000016059195822143058870000003739010757448661404_" cx="619.336" cy="555.1718" r="331.0292" gradientTransform="matrix(0.9785 0.2063 -0.2063 0.9785 99.2108 -98.4878)" gradientUnits="userSpaceOnUse">
				<stop  offset="0" style="stop-color:#F5F5F5"/>
				<stop  offset="0.0114" style="stop-color:#F4F4F4"/>
				<stop  offset="0.2604" style="stop-color:#DCDDDE"/>
				<stop  offset="0.4144" style="stop-color:#D3D4D6"/>
				<stop  offset="0.9706" style="stop-color:#D3D4D6"/>
			</radialGradient>
			
				<path style="fill:none;stroke:url(#SVGID_00000016059195822143058870000003739010757448661404_);stroke-width:2;stroke-miterlimit:10;" d="
				M160.68,755.08c47.758-30.689,450.096-330.507,450.096-330.507l410.298-34.292"/>
		</g>
		<g style="clip-path:url(#SVGID_00000018934040583810972870000011561314162365899710_);">
			<g>
				<polygon style="fill:#21283D;" points="648.664,540.836 771.674,500.12 668.368,422.939 				"/>
				<polygon style="fill:#272F45;" points="771.674,500.12 684.536,482.819 668.368,422.939 				"/>
				<polygon style="fill:#303B57;" points="684.536,482.819 651.079,526.385 668.368,422.939 				"/>
			</g>
			<polygon style="fill:#1E2436;" points="771.674,500.12 668.368,422.939 739.407,405.457 			"/>
			<polygon style="fill:#21283D;" points="739.407,405.457 707.638,443.809 771.674,500.12 			"/>
			<polygon style="fill:#303B57;" points="707.638,443.809 668.368,422.939 739.407,405.457 			"/>
			<polygon style="fill:#2A334A;" points="739.407,405.457 608.212,368.044 668.368,422.939 			"/>
			<polygon style="fill:#2A334A;" points="608.212,368.044 651.079,523.71 668.368,422.939 			"/>
			<polygon style="fill:#272F45;" points="668.368,422.939 636.255,421.875 651.079,526.385 			"/>
			<polygon style="fill:#21283D;" points="636.255,421.875 608.212,368.044 651.079,523.71 			"/>
			<polygon style="fill:#303B57;" points="739.407,405.457 659.788,397.936 608.212,368.044 			"/>
			<polygon style="fill:#21283D;" points="659.788,397.936 668.368,422.939 608.212,368.044 			"/>
			<polygon style="fill:#21283D;" points="608.212,368.044 725.592,311.08 739.407,405.457 			"/>
			<polygon style="fill:#2A334A;" points="739.407,405.457 678.222,358.268 608.212,368.044 			"/>
			<polygon style="fill:#303B57;" points="725.592,311.08 678.222,358.268 608.212,368.044 			"/>
			<polygon style="fill:#2A334A;" points="623.036,421.875 521.729,452.907 651.079,523.71 			"/>
			<polygon style="fill:#303B57;" points="623.036,421.875 603.702,455.879 521.729,452.907 			"/>
			<polygon style="fill:#1E2436;" points="603.702,455.879 651.079,523.71 521.729,452.907 			"/>
			<polygon style="fill:#2A334A;" points="608.212,368.044 521.729,341.929 521.729,452.907 623.036,421.875 			"/>
			<polygon style="fill:#1E2436;" points="521.729,341.929 572.383,397.418 521.729,452.907 			"/>
			<polygon style="fill:#21283D;" points="623.036,421.875 572.383,397.418 521.729,452.907 			"/>
			<polygon style="fill:#303B57;" points="521.729,452.907 502.903,474.662 444.072,442.579 459.76,554.254 651.079,523.71 			"/>
			<path style="fill:#21283D;" d="M502.903,474.662c0,0-42.823,81.87-43.143,79.592c-0.32-2.277-15.688-111.675-15.688-111.675
				L502.903,474.662z"/>
			<polygon style="fill:#2A334A;" points="521.729,452.907 525.318,543.788 651.079,523.71 			"/>
			<polygon style="fill:#2A334A;" points="521.729,341.929 444.072,442.579 502.903,474.662 521.729,452.907 			"/>
			<polygon style="fill:#303B57;" points="502.903,474.662 521.729,341.929 444.072,442.579 			"/>
			<polygon style="fill:#2A334A;" points="444.072,442.579 356.216,323.112 455.838,326.821 485.117,389.381 			"/>
			<polygon style="fill:#1E2436;" points="455.838,326.821 438.581,383.101 356.216,323.112 			"/>
			<polygon style="fill:#272F45;" points="438.581,383.101 444.072,442.579 356.216,323.112 			"/>
			<polygon style="fill:#21283D;" points="485.117,389.381 438.581,383.101 445.639,440.547 			"/>
			<polygon style="fill:#303B57;" points="444.072,442.579 340.528,526.385 459.76,554.254 			"/>
			<polygon style="fill:#1E2436;" points="444.072,442.579 431.717,485.208 459.76,554.254 			"/>
			<path style="fill:#2A334A;" d="M459.76,554.254c-1.741-4.286-28.043-69.046-28.043-69.046l-91.189,41.176L459.76,554.254z"/>
			<polygon style="fill:#21283D;" points="356.216,323.112 382.887,432.096 340.528,526.385 444.072,442.579 			"/>
			<polygon style="fill:#2A334A;" points="382.887,432.096 356.216,323.112 444.072,442.579 			"/>
			<polygon style="fill:#2A334A;" points="356.216,323.112 295.031,368.044 382.887,432.096 			"/>
			<polygon style="fill:#1E2436;" points="356.216,323.112 352.294,386.75 382.887,432.096 			"/>
			<polygon style="fill:#272F45;" points="352.294,386.75 295.031,368.044 356.216,323.112 			"/>
			<polygon style="fill:#1E2436;" points="382.887,432.096 286.403,452.907 340.528,526.385 			"/>
			<polygon style="fill:#293249;" points="382.887,432.096 332.292,470.948 340.528,526.385 			"/>
			<polygon style="fill:#303B57;" points="332.292,470.948 286.403,452.907 382.887,432.096 			"/>
			<polygon style="fill:#2A334A;" points="295.031,368.044 249.339,389.53 286.403,452.907 382.887,432.096 			"/>
			<polygon style="fill:#2A334A;" points="295.031,368.044 316.113,424.18 249.339,389.53 			"/>
			<polygon style="fill:#1E2436;" points="316.113,424.18 286.403,452.907 249.339,389.53 			"/>
			<polygon style="fill:#21283B;" points="286.403,452.907 221.688,523.71 340.528,526.385 			"/>
			<polygon style="fill:#303B57;" points="286.403,452.907 282.726,480.783 340.528,526.385 			"/>
			<polygon style="fill:#2A334A;" points="282.726,480.783 221.688,523.71 286.403,452.907 			"/>
			<polygon style="fill:#303B57;" points="249.339,389.53 221.688,523.71 286.403,452.907 			"/>
			<polygon style="fill:#272F45;" points="286.403,452.907 256.987,440.547 221.688,523.71 			"/>
			<polyline style="fill:#303B57;" points="295.031,368.044 218.908,271.654 249.339,389.53 295.031,368.044 			"/>
			<path style="fill:#1E2436;" d="M295.031,368.044c-0.933,0.439-33.849-9.959-33.849-9.959l-42.275-86.431L295.031,368.044"/>
			<polygon style="fill:#2A334A;" points="261.183,358.085 249.339,389.53 218.908,271.654 			"/>
			<polygon style="fill:#303B57;" points="316.113,424.18 382.887,432.096 295.031,368.044 			"/>
			<polygon style="fill:#303B57;" points="725.592,311.08 795.714,353.107 739.407,405.457 			"/>
			<polygon style="fill:#1E2436;" points="795.714,353.107 752.049,353.107 725.592,311.08 			"/>
			<polygon style="fill:#2A334A;" points="752.049,353.107 739.407,405.457 795.714,353.107 			"/>
			<polygon style="fill:#303B57;" points="795.714,353.107 771.674,500.12 739.407,405.457 			"/>
			<polygon style="fill:#2A334A;" points="249.339,389.53 153.492,377.604 218.908,271.654 			"/>
			<polygon style="fill:#21283D;" points="249.339,389.53 201.415,353.107 218.908,271.654 			"/>
			<polygon style="fill:#2E3954;" points="201.415,353.107 153.492,377.604 218.908,271.654 			"/>
			<polygon style="fill:#303B57;" points="221.688,523.71 153.492,377.604 249.339,389.53 			"/>
			<polygon style="fill:#21283D;" points="256.987,440.547 249.339,389.53 221.688,523.71 			"/>
			<polygon style="fill:#1E2436;" points="249.339,389.53 211.385,442.579 153.492,377.604 			"/>
			<polygon style="fill:#293249;" points="221.688,523.71 211.385,442.579 153.492,377.604 			"/>
			<polygon style="fill:#1E2436;" points="221.688,523.71 134.194,523.71 153.492,377.604 			"/>
			<polygon style="fill:#21283D;" points="221.688,523.71 168.701,485.208 153.492,377.604 			"/>
			<polygon style="fill:#303B57;" points="153.492,377.604 168.701,485.208 134.194,523.71 			"/>
			<g>
				<polygon style="fill:#303B57;" points="218.908,271.654 106.949,232.637 153.492,377.604 				"/>
				<polygon style="fill:#1E2436;" points="218.908,271.654 157.735,274.714 153.492,377.604 				"/>
				<polygon style="fill:#2A334A;" points="157.735,274.714 106.949,232.637 153.492,377.604 				"/>
			</g>
			<polygon style="fill:#21283B;" points="153.492,377.604 83.806,445.714 134.194,523.71 			"/>
			<polygon style="fill:#303B57;" points="134.194,523.71 127.092,442.579 83.806,445.714 			"/>
			<polygon style="fill:#1E2436;" points="153.492,377.604 127.092,442.579 83.806,445.714 			"/>
			<polygon style="fill:#21283D;" points="106.949,232.637 50.377,173.143 15.663,236.143 153.492,377.604 			"/>
			<polygon style="fill:#1E2436;" points="93.449,283.714 153.492,377.604 15.663,236.143 			"/>
			<polygon style="fill:#21283B;" points="83.806,445.714 84.577,306.873 153.492,377.604 			"/>
			<polygon style="fill:#2A334A;" points="153.492,377.604 106.949,360 83.806,445.714 			"/>
			<polygon style="fill:#303B57;" points="106.949,360 84.577,306.873 83.806,445.714 			"/>
			<polygon style="fill:#21283D;" points="83.806,445.714 33.663,504.857 134.194,523.71 			"/>
			<polygon style="fill:#2A334A;" points="33.663,504.857 84.577,489.646 83.806,445.714 			"/>
			<path style="fill:#1E2436;" d="M134.194,523.71l-49.616-34.064c0,0-53.057,13.926-50.914,15.211
				C35.806,506.143,134.194,523.71,134.194,523.71z"/>
			<polygon style="fill:#2A334A;" points="84.577,306.873 -11.98,373.714 83.806,445.714 			"/>
			<polygon style="fill:#21283B;" points="83.806,445.714 54.556,390.281 84.577,306.873 			"/>
			<polygon style="fill:#1E2436;" points="54.556,390.281 -11.98,373.714 83.806,445.714 			"/>
			<polygon style="fill:#21283B;" points="-11.98,373.714 -29.98,470.948 83.806,445.714 			"/>
			<polygon style="fill:#303B57;" points="-11.98,373.714 15.663,428.679 -29.98,470.948 			"/>
			<polygon style="fill:#1E2436;" points="15.663,428.679 83.806,445.714 -29.98,470.948 			"/>
			<path style="fill:#1E2436;" d="M33.663,504.857l-45.643,10.714c0,0-20.735-44.017-18-44.624
				c2.735-0.606,113.786-25.233,113.786-25.233L33.663,504.857z"/>
			<polygon style="fill:#21283B;" points="33.663,504.857 33.663,467.143 -29.98,470.948 -11.98,515.571 			"/>
			<polygon style="fill:#2A334A;" points="33.663,467.143 83.806,445.714 -29.98,470.948 			"/>
			<polygon style="fill:#303B57;" points="15.663,236.143 -11.98,373.714 84.577,306.873 			"/>
			<polygon style="fill:#2A334A;" points="84.577,306.873 26.913,304.929 15.663,236.143 			"/>
			<polygon style="fill:#21283B;" points="26.913,304.929 -11.98,373.714 15.663,236.143 			"/>
			<polygon style="fill:#2A334A;" points="15.663,236.143 -11.98,373.714 -42.194,138 			"/>
			<polygon style="fill:#1E2436;" points="15.663,236.143 -11.98,239.143 -11.557,371.613 			"/>
			<polyline style="fill:#303B57;" points="-11.98,239.143 -42.194,138 -11.557,371.613 			"/>
			<polygon style="fill:#2E3954;" points="106.949,232.637 93.449,283.714 50.377,173.143 			"/>
			<polygon style="fill:#21283B;" points="93.449,283.714 15.663,236.143 50.377,173.143 			"/>
			<polygon style="fill:#2A334A;" points="50.377,173.143 -42.194,138 15.663,236.143 			"/>
			<polygon style="fill:#303B57;" points="50.377,173.143 10.199,173.143 15.663,236.143 			"/>
			<polygon style="fill:#21283B;" points="10.199,173.143 -42.194,138 15.663,236.143 			"/>
		</g>
	</g>
</g>
</svg>
